<?xml version="1.0" encoding="iso-8859-1"?>
<!-- Generator: Adobe Illustrator 19.0.0, SVG Export Plug-In . SVG Version: 6.00 Build 0)  -->
<svg version="1.1" id="Capa_1" xmlns="http://www.w3.org/2000/svg" xmlns:xlink="http://www.w3.org/1999/xlink" x="0px" y="0px"
	 viewBox="0 0 512 512" style="enable-background:new 0 0 512 512;" xml:space="preserve">
<g>
	<path style="fill:#FB9821;" d="M251.498,2.423L197.38,84.443c-2.366,3.586,0.206,8.364,4.501,8.364h108.236
		c4.296,0,6.867-4.778,4.501-8.364L260.502,2.423C258.37-0.808,253.63-0.808,251.498,2.423z"/>
	<path style="fill:#FB9821;" d="M251.498,509.577l-54.118-82.019c-2.366-3.586,0.206-8.364,4.501-8.364h108.236
		c4.296,0,6.867,4.778,4.501,8.364l-54.118,82.019C258.37,512.808,253.63,512.808,251.498,509.577z"/>
	<path style="fill:#FB9821;" d="M125.313,38.647l-5.858,98.089c-0.256,4.288,4.36,7.14,8.08,4.993l93.735-54.118
		c3.721-2.148,3.559-7.572-0.283-9.494L133.11,34.145C129.649,32.413,125.544,34.783,125.313,38.647z"/>
	<path style="fill:#FB9821;" d="M378.89,477.855l-87.877-43.971c-3.842-1.922-4.004-7.346-0.283-9.494l93.735-54.118
		c3.721-2.148,8.336,0.704,8.08,4.993l-5.858,98.089C386.456,477.217,382.351,479.587,378.89,477.855z"/>
	<path style="fill:#FB9821;" d="M34.145,133.11l43.971,87.877c1.922,3.842,7.346,4.004,9.494,0.283l54.118-93.735
		c2.148-3.721-0.704-8.336-4.993-8.08l-98.089,5.858C34.783,125.544,32.413,129.649,34.145,133.11z"/>
	<path style="fill:#FB9821;" d="M473.353,386.687l-98.089,5.858c-4.288,0.256-7.14-4.36-4.993-8.08l54.118-93.735
		c2.148-3.721,7.572-3.559,9.494,0.283l43.971,87.877C479.587,382.351,477.217,386.456,473.353,386.687z"/>
	<path style="fill:#FB9821;" d="M2.423,260.502l82.019,54.118c3.586,2.366,8.364-0.206,8.364-4.501V201.882
		c0-4.296-4.778-6.868-8.364-4.501L2.423,251.498C-0.808,253.63-0.808,258.37,2.423,260.502z"/>
	<path style="fill:#FB9821;" d="M509.577,260.502l-82.019,54.118c-3.586,2.366-8.364-0.206-8.364-4.501V201.882
		c0-4.296,4.778-6.868,8.364-4.501l82.019,54.118C512.808,253.63,512.808,258.37,509.577,260.502z"/>
	<path style="fill:#FB9821;" d="M38.647,386.687l98.089,5.858c4.288,0.256,7.14-4.36,4.993-8.08L87.611,290.73
		c-2.148-3.721-7.572-3.559-9.494,0.283L34.146,378.89C32.413,382.351,34.783,386.456,38.647,386.687z"/>
	<path style="fill:#FB9821;" d="M477.855,133.11l-43.971,87.877c-1.922,3.842-7.346,4.004-9.494,0.283l-54.118-93.735
		c-2.148-3.721,0.704-8.336,4.993-8.08l98.089,5.858C477.217,125.544,479.587,129.649,477.855,133.11z"/>
	<path style="fill:#FB9821;" d="M133.11,477.855l87.877-43.971c3.842-1.922,4.004-7.346,0.283-9.494l-93.735-54.118
		c-3.721-2.148-8.336,0.704-8.08,4.993l5.858,98.089C125.544,477.217,129.649,479.587,133.11,477.855z"/>
	<path style="fill:#FB9821;" d="M386.687,38.647l5.858,98.089c0.256,4.288-4.36,7.14-8.08,4.993L290.73,87.611
		c-3.721-2.148-3.559-7.572,0.283-9.494l87.877-43.971C382.351,32.413,386.456,34.783,386.687,38.647z"/>
</g>
<circle style="fill:#F2D755;" cx="256.001" cy="256.001" r="182.041"/>
<path style="fill:#E5C439;" d="M438.037,255.999c0,100.536-81.502,182.037-182.037,182.037c-5.718,0-11.385-0.259-16.968-0.779
	c92.585-8.563,165.078-86.442,165.078-181.259S331.617,83.303,239.031,74.742c5.583-0.518,11.25-0.779,16.968-0.779
	C356.535,73.963,438.037,155.465,438.037,255.999z"/>
<g>
</g>
<g>
</g>
<g>
</g>
<g>
</g>
<g>
</g>
<g>
</g>
<g>
</g>
<g>
</g>
<g>
</g>
<g>
</g>
<g>
</g>
<g>
</g>
<g>
</g>
<g>
</g>
<g>
</g>
</svg>
